<?xml version="1.0" encoding="UTF-8" standalone="no"?>
<!DOCTYPE svg PUBLIC "-//W3C//DTD SVG 1.1//EN"
 "http://www.w3.org/Graphics/SVG/1.1/DTD/svg11.dtd">
<!-- Generated by graphviz version 11.0.0 (0)
 -->
<!-- Pages: 1 -->
<svg width="796pt" height="243pt"
 viewBox="0.00 0.00 795.62 242.60" xmlns="http://www.w3.org/2000/svg" xmlns:xlink="http://www.w3.org/1999/xlink">
<g id="graph0" class="graph" transform="scale(1 1) rotate(0) translate(4 238.6)">
<polygon fill="white" stroke="none" points="-4,4 -4,-238.6 791.62,-238.6 791.62,4 -4,4"/>
<!-- godefroy -->
<g id="node1" class="node">
<title>godefroy</title>
<polygon fill="none" stroke="blue" points="354.5,-41 277,-41 277,0 354.5,0 354.5,-41"/>
<text text-anchor="middle" x="315.75" y="-23.7" font-family="Times,serif" font-size="14.00">Godefroy</text>
<text text-anchor="middle" x="315.75" y="-7.2" font-family="Times,serif" font-size="14.00">the Grafted</text>
</g>
<!-- golden_lineage -->
<g id="node2" class="node">
<title>golden_lineage</title>
<polygon fill="none" stroke="gray" points="415.25,-115.5 312.25,-115.5 312.25,-79.5 415.25,-79.5 415.25,-115.5"/>
<text text-anchor="middle" x="363.75" y="-92.45" font-family="Times,serif" font-size="14.00">Golden Lineage</text>
</g>
<!-- golden_lineage&#45;&#45;godefroy -->
<g id="edge1" class="edge">
<title>golden_lineage&#45;&#45;godefroy</title>
<path fill="none" stroke="black" d="M333.38,-79.25C333.38,-67.87 333.38,-53.18 333.38,-41.34"/>
</g>
<!-- godrick -->
<g id="node4" class="node">
<title>godrick</title>
<polygon fill="none" stroke="blue" points="450.5,-41 373,-41 373,0 450.5,0 450.5,-41"/>
<text text-anchor="middle" x="411.75" y="-23.7" font-family="Times,serif" font-size="14.00">Godrick</text>
<text text-anchor="middle" x="411.75" y="-7.2" font-family="Times,serif" font-size="14.00">the Grafted</text>
</g>
<!-- golden_lineage&#45;&#45;godrick -->
<g id="edge2" class="edge">
<title>golden_lineage&#45;&#45;godrick</title>
<path fill="none" stroke="black" d="M394.12,-79.25C394.12,-67.87 394.12,-53.18 394.12,-41.34"/>
</g>
<!-- godfrey -->
<g id="node3" class="node">
<title>godfrey</title>
<polygon fill="none" stroke="blue" points="415.75,-234.6 309.75,-234.6 309.75,-193.6 415.75,-193.6 415.75,-234.6"/>
<text text-anchor="middle" x="362.75" y="-217.3" font-family="Times,serif" font-size="14.00">Godfrey</text>
<text text-anchor="middle" x="362.75" y="-200.8" font-family="Times,serif" font-size="14.00">First Elden Lord</text>
</g>
<!-- godwyn -->
<g id="node5" class="node">
<title>godwyn</title>
<polygon fill="none" stroke="blue" points="293.75,-118 217.75,-118 217.75,-77 293.75,-77 293.75,-118"/>
<text text-anchor="middle" x="255.75" y="-100.7" font-family="Times,serif" font-size="14.00">Godwyn</text>
<text text-anchor="middle" x="255.75" y="-84.2" font-family="Times,serif" font-size="14.00">the Golden</text>
</g>
<!-- marika&#45;x&#45;godfrey -->
<g id="node6" class="node">
<title>marika&#45;x&#45;godfrey</title>
<polygon fill="none" stroke="black" points="287.75,-217.7 284.15,-214.1 287.75,-210.5 291.35,-214.1 287.75,-217.7"/>
</g>
<!-- marika&#45;x&#45;godfrey&#45;&#45;godfrey -->
<g id="edge4" class="edge">
<title>marika&#45;x&#45;godfrey&#45;&#45;godfrey</title>
<path fill="none" stroke="black" d="M291.78,-214C295.68,-214 302.06,-214 309.44,-214"/>
</g>
<!-- c&#45;marika&#45;x&#45;godfrey -->
<g id="node8" class="node">
<title>c&#45;marika&#45;x&#45;godfrey</title>
<ellipse fill="black" stroke="black" cx="287.75" cy="-155.8" rx="1.8" ry="1.8"/>
</g>
<!-- marika&#45;x&#45;godfrey&#45;&#45;c&#45;marika&#45;x&#45;godfrey -->
<g id="edge5" class="edge">
<title>marika&#45;x&#45;godfrey&#45;&#45;c&#45;marika&#45;x&#45;godfrey</title>
<path fill="none" stroke="black" d="M287.75,-209.91C287.75,-198.42 287.75,-166.72 287.75,-158.03"/>
</g>
<!-- marika -->
<g id="node7" class="node">
<title>marika</title>
<polygon fill="none" stroke="red" points="266.38,-234.6 191.12,-234.6 191.12,-193.6 266.38,-193.6 266.38,-234.6"/>
<text text-anchor="middle" x="228.75" y="-217.3" font-family="Times,serif" font-size="14.00">Marika</text>
<text text-anchor="middle" x="228.75" y="-200.8" font-family="Times,serif" font-size="14.00">the Eternal</text>
</g>
<!-- marika&#45;&#45;marika&#45;x&#45;godfrey -->
<g id="edge3" class="edge">
<title>marika&#45;&#45;marika&#45;x&#45;godfrey</title>
<path fill="none" stroke="black" d="M266.78,-214C273.74,-214 280,-214 283.84,-214"/>
</g>
<!-- c&#45;marika&#45;x&#45;godfrey&#45;&#45;golden_lineage -->
<g id="edge7" class="edge">
<title>c&#45;marika&#45;x&#45;godfrey&#45;&#45;golden_lineage</title>
<path fill="none" stroke="black" d="M289.94,-156C302.4,-156 363.75,-156 363.75,-156 363.75,-156 363.75,-132.86 363.75,-115.69"/>
</g>
<!-- c&#45;marika&#45;x&#45;godfrey&#45;&#45;godwyn -->
<g id="edge6" class="edge">
<title>c&#45;marika&#45;x&#45;godfrey&#45;&#45;godwyn</title>
<path fill="none" stroke="black" d="M287.75,-153.86C287.75,-148.33 287.75,-131.99 287.75,-118.32"/>
</g>
<!-- radagon -->
<g id="node9" class="node">
<title>radagon</title>
<polygon fill="none" stroke="blue" points="147.88,-234.6 21.62,-234.6 21.62,-193.6 147.88,-193.6 147.88,-234.6"/>
<text text-anchor="middle" x="84.75" y="-217.3" font-family="Times,serif" font-size="14.00">Radagon</text>
<text text-anchor="middle" x="84.75" y="-200.8" font-family="Times,serif" font-size="14.00">of the Golden Order</text>
</g>
<!-- radagon&#45;x&#45;rennala -->
<g id="node11" class="node">
<title>radagon&#45;x&#45;rennala</title>
<polygon fill="none" stroke="black" points="465.75,-217.7 462.15,-214.1 465.75,-210.5 469.35,-214.1 465.75,-217.7"/>
</g>
<!-- radagon&#45;&#45;radagon&#45;x&#45;rennala -->
<g id="edge8" class="edge">
<title>radagon&#45;&#45;radagon&#45;x&#45;rennala</title>
<path fill="none" stroke="black" d="M141.75,-193.33C141.75,-186.67 141.75,-181 141.75,-181 141.75,-181 464.55,-181 464.55,-181 464.55,-181 464.55,-202.85 464.55,-211.05"/>
</g>
<!-- radagon&#45;x&#45;marika -->
<g id="node17" class="node">
<title>radagon&#45;x&#45;marika</title>
<polygon fill="none" stroke="black" points="169.75,-217.7 166.15,-214.1 169.75,-210.5 173.35,-214.1 169.75,-217.7"/>
</g>
<!-- radagon&#45;&#45;radagon&#45;x&#45;marika -->
<g id="edge14" class="edge">
<title>radagon&#45;&#45;radagon&#45;x&#45;marika</title>
<path fill="none" stroke="black" d="M148.3,-214C155.6,-214 161.8,-214 165.62,-214"/>
</g>
<!-- radahn -->
<g id="node10" class="node">
<title>radahn</title>
<polygon fill="none" stroke="blue" points="787.62,-118 647.88,-118 647.88,-77 787.62,-77 787.62,-118"/>
<text text-anchor="middle" x="717.75" y="-100.7" font-family="Times,serif" font-size="14.00">Radahn</text>
<text text-anchor="middle" x="717.75" y="-84.2" font-family="Times,serif" font-size="14.00">Conqueror of the Stars</text>
</g>
<!-- rennala -->
<g id="node12" class="node">
<title>rennala</title>
<polygon fill="none" stroke="red" points="636.12,-234.6 487.38,-234.6 487.38,-193.6 636.12,-193.6 636.12,-234.6"/>
<text text-anchor="middle" x="561.75" y="-217.3" font-family="Times,serif" font-size="14.00">Rennala</text>
<text text-anchor="middle" x="561.75" y="-200.8" font-family="Times,serif" font-size="14.00">Queen of the Full Moon</text>
</g>
<!-- radagon&#45;x&#45;rennala&#45;&#45;rennala -->
<g id="edge9" class="edge">
<title>radagon&#45;x&#45;rennala&#45;&#45;rennala</title>
<path fill="none" stroke="black" d="M469.88,-214C473.68,-214 479.85,-214 487.23,-214"/>
</g>
<!-- c&#45;radagon&#45;x&#45;rennala -->
<g id="node13" class="node">
<title>c&#45;radagon&#45;x&#45;rennala</title>
<ellipse fill="black" stroke="black" cx="520.75" cy="-155.8" rx="1.8" ry="1.8"/>
</g>
<!-- radagon&#45;x&#45;rennala&#45;&#45;c&#45;radagon&#45;x&#45;rennala -->
<g id="edge10" class="edge">
<title>radagon&#45;x&#45;rennala&#45;&#45;c&#45;radagon&#45;x&#45;rennala</title>
<path fill="none" stroke="black" d="M466.95,-211.14C466.95,-201.11 466.95,-169 466.95,-169 466.95,-169 520.75,-169 520.75,-169 520.75,-169 520.75,-161.88 520.75,-158.1"/>
</g>
<!-- c&#45;radagon&#45;x&#45;rennala&#45;&#45;radahn -->
<g id="edge11" class="edge">
<title>c&#45;radagon&#45;x&#45;rennala&#45;&#45;radahn</title>
<path fill="none" stroke="black" d="M522.45,-155C541.71,-155 717.75,-155 717.75,-155 717.75,-155 717.75,-134.73 717.75,-118.26"/>
</g>
<!-- ranni -->
<g id="node14" class="node">
<title>ranni</title>
<polygon fill="none" stroke="red" points="502,-118 433.5,-118 433.5,-77 502,-77 502,-118"/>
<text text-anchor="middle" x="467.75" y="-100.7" font-family="Times,serif" font-size="14.00">Ranni</text>
<text text-anchor="middle" x="467.75" y="-84.2" font-family="Times,serif" font-size="14.00">the Witch</text>
</g>
<!-- c&#45;radagon&#45;x&#45;rennala&#45;&#45;ranni -->
<g id="edge12" class="edge">
<title>c&#45;radagon&#45;x&#45;rennala&#45;&#45;ranni</title>
<path fill="none" stroke="black" d="M518.7,-155C512.56,-155 494.69,-155 494.69,-155 494.69,-155 494.69,-134.73 494.69,-118.26"/>
</g>
<!-- rykard -->
<g id="node15" class="node">
<title>rykard</title>
<polygon fill="none" stroke="blue" points="629.62,-118 519.88,-118 519.88,-77 629.62,-77 629.62,-118"/>
<text text-anchor="middle" x="574.75" y="-100.7" font-family="Times,serif" font-size="14.00">Rykard</text>
<text text-anchor="middle" x="574.75" y="-84.2" font-family="Times,serif" font-size="14.00">the Blasphemous</text>
</g>
<!-- c&#45;radagon&#45;x&#45;rennala&#45;&#45;rykard -->
<g id="edge13" class="edge">
<title>c&#45;radagon&#45;x&#45;rennala&#45;&#45;rykard</title>
<path fill="none" stroke="black" d="M521.21,-153.86C521.21,-148.33 521.21,-131.99 521.21,-118.32"/>
</g>
<!-- malenia -->
<g id="node16" class="node">
<title>malenia</title>
<polygon fill="none" stroke="red" points="199.62,-118 83.88,-118 83.88,-77 199.62,-77 199.62,-118"/>
<text text-anchor="middle" x="141.75" y="-100.7" font-family="Times,serif" font-size="14.00">Malenia</text>
<text text-anchor="middle" x="141.75" y="-84.2" font-family="Times,serif" font-size="14.00">Blade of Miquella</text>
</g>
<!-- radagon&#45;x&#45;marika&#45;&#45;marika -->
<g id="edge15" class="edge">
<title>radagon&#45;x&#45;marika&#45;&#45;marika</title>
<path fill="none" stroke="black" d="M173.62,-214C177.47,-214 183.79,-214 190.81,-214"/>
</g>
<!-- c&#45;radagon&#45;x&#45;marika -->
<g id="node18" class="node">
<title>c&#45;radagon&#45;x&#45;marika</title>
<ellipse fill="black" stroke="black" cx="141.75" cy="-155.8" rx="1.8" ry="1.8"/>
</g>
<!-- radagon&#45;x&#45;marika&#45;&#45;c&#45;radagon&#45;x&#45;marika -->
<g id="edge16" class="edge">
<title>radagon&#45;x&#45;marika&#45;&#45;c&#45;radagon&#45;x&#45;marika</title>
<path fill="none" stroke="black" d="M169.75,-209.85C169.75,-196.3 169.75,-155 169.75,-155 169.75,-155 149.82,-155 143.59,-155"/>
</g>
<!-- c&#45;radagon&#45;x&#45;marika&#45;&#45;malenia -->
<g id="edge17" class="edge">
<title>c&#45;radagon&#45;x&#45;marika&#45;&#45;malenia</title>
<path fill="none" stroke="black" d="M141.75,-153.86C141.75,-148.33 141.75,-131.99 141.75,-118.32"/>
</g>
<!-- miquella -->
<g id="node19" class="node">
<title>miquella</title>
<polygon fill="none" stroke="blue" points="65.5,-118 0,-118 0,-77 65.5,-77 65.5,-118"/>
<text text-anchor="middle" x="32.75" y="-100.7" font-family="Times,serif" font-size="14.00">Miquella</text>
<text text-anchor="middle" x="32.75" y="-84.2" font-family="Times,serif" font-size="14.00">the Kind</text>
</g>
<!-- c&#45;radagon&#45;x&#45;marika&#45;&#45;miquella -->
<g id="edge18" class="edge">
<title>c&#45;radagon&#45;x&#45;marika&#45;&#45;miquella</title>
<path fill="none" stroke="black" d="M139.7,-155C125.6,-155 43.56,-155 43.56,-155 43.56,-155 43.56,-134.73 43.56,-118.26"/>
</g>
</g>
</svg>
