<?xml version="1.0" encoding="UTF-8" standalone="no"?>
<!DOCTYPE svg PUBLIC "-//W3C//DTD SVG 1.1//EN"
 "http://www.w3.org/Graphics/SVG/1.1/DTD/svg11.dtd">
<!-- Generated by graphviz version 11.0.0 (0)
 -->
<!-- Pages: 1 -->
<svg width="629pt" height="1394pt"
 viewBox="0.00 0.00 629.00 1394.00" xmlns="http://www.w3.org/2000/svg" xmlns:xlink="http://www.w3.org/1999/xlink">
<g id="graph0" class="graph" transform="scale(1 1) rotate(0) translate(4 1390)">
<polygon fill="white" stroke="none" points="-4,4 -4,-1390 625,-1390 625,4 -4,4"/>
<!-- beor_the_old -->
<g id="node1" class="node">
<title>beor_the_old</title>
<polygon fill="none" stroke="blue" points="531.75,-1386 442.25,-1386 442.25,-1350 531.75,-1350 531.75,-1386"/>
<text text-anchor="middle" x="487" y="-1362.95" font-family="Times,serif" font-size="14.00">Beor, the Old</text>
</g>
<!-- baran -->
<g id="node2" class="node">
<title>baran</title>
<polygon fill="none" stroke="blue" points="478,-1314 424,-1314 424,-1278 478,-1278 478,-1314"/>
<text text-anchor="middle" x="451" y="-1290.95" font-family="Times,serif" font-size="14.00">Baran</text>
</g>
<!-- beor_the_old&#45;&#45;baran -->
<g id="edge1" class="edge">
<title>beor_the_old&#45;&#45;baran</title>
<path fill="none" stroke="black" d="M460.12,-1349.83C460.12,-1339 460.12,-1325.29 460.12,-1314.41"/>
</g>
<!-- belen -->
<g id="node3" class="node">
<title>belen</title>
<polygon fill="none" stroke="blue" points="551,-1314 497,-1314 497,-1278 551,-1278 551,-1314"/>
<text text-anchor="middle" x="524" y="-1290.95" font-family="Times,serif" font-size="14.00">Belen</text>
</g>
<!-- beor_the_old&#45;&#45;belen -->
<g id="edge2" class="edge">
<title>beor_the_old&#45;&#45;belen</title>
<path fill="none" stroke="black" d="M514.38,-1349.83C514.38,-1339 514.38,-1325.29 514.38,-1314.41"/>
</g>
<!-- boron -->
<g id="node4" class="node">
<title>boron</title>
<polygon fill="none" stroke="blue" points="403,-1242 349,-1242 349,-1206 403,-1206 403,-1242"/>
<text text-anchor="middle" x="376" y="-1218.95" font-family="Times,serif" font-size="14.00">Boron</text>
</g>
<!-- baran&#45;&#45;boron -->
<g id="edge3" class="edge">
<title>baran&#45;&#45;boron</title>
<path fill="none" stroke="black" d="M423.92,-1295C402.44,-1295 376,-1295 376,-1295 376,-1295 376,-1263.32 376,-1242.28"/>
</g>
<!-- baranor -->
<g id="node5" class="node">
<title>baranor</title>
<polygon fill="none" stroke="blue" points="480.75,-1242 421.25,-1242 421.25,-1206 480.75,-1206 480.75,-1242"/>
<text text-anchor="middle" x="451" y="-1218.95" font-family="Times,serif" font-size="14.00">Baranor</text>
</g>
<!-- baran&#45;&#45;baranor -->
<g id="edge4" class="edge">
<title>baran&#45;&#45;baranor</title>
<path fill="none" stroke="black" d="M451,-1277.83C451,-1267 451,-1253.29 451,-1242.41"/>
</g>
<!-- beldir -->
<g id="node12" class="node">
<title>beldir</title>
<polygon fill="none" stroke="blue" points="553,-1242 499,-1242 499,-1206 553,-1206 553,-1242"/>
<text text-anchor="middle" x="526" y="-1218.95" font-family="Times,serif" font-size="14.00">Beldir</text>
</g>
<!-- belen&#45;&#45;beldir -->
<g id="edge11" class="edge">
<title>belen&#45;&#45;beldir</title>
<path fill="none" stroke="black" d="M525,-1277.83C525,-1267 525,-1253.29 525,-1242.41"/>
</g>
<!-- boromir -->
<g id="node6" class="node">
<title>boromir</title>
<polygon fill="none" stroke="blue" points="406.25,-1170 343.75,-1170 343.75,-1134 406.25,-1134 406.25,-1170"/>
<text text-anchor="middle" x="375" y="-1146.95" font-family="Times,serif" font-size="14.00">Boromir</text>
</g>
<!-- boron&#45;&#45;boromir -->
<g id="edge5" class="edge">
<title>boron&#45;&#45;boromir</title>
<path fill="none" stroke="black" d="M376,-1205.83C376,-1195 376,-1181.29 376,-1170.41"/>
</g>
<!-- bereg -->
<g id="node7" class="node">
<title>bereg</title>
<polygon fill="none" stroke="blue" points="478,-1170 424,-1170 424,-1134 478,-1134 478,-1170"/>
<text text-anchor="middle" x="451" y="-1146.95" font-family="Times,serif" font-size="14.00">Bereg</text>
</g>
<!-- baranor&#45;&#45;bereg -->
<g id="edge6" class="edge">
<title>baranor&#45;&#45;bereg</title>
<path fill="none" stroke="black" d="M451,-1205.83C451,-1195 451,-1181.29 451,-1170.41"/>
</g>
<!-- andreth -->
<g id="node8" class="node">
<title>andreth</title>
<polygon fill="none" stroke="red" points="466.12,-1098 405.88,-1098 405.88,-1062 466.12,-1062 466.12,-1098"/>
<text text-anchor="middle" x="436" y="-1074.95" font-family="Times,serif" font-size="14.00">Andreth</text>
</g>
<!-- boromir&#45;&#45;andreth -->
<g id="edge7" class="edge">
<title>boromir&#45;&#45;andreth</title>
<path fill="none" stroke="black" d="M406.64,-1151C410.85,-1151 413.75,-1151 413.75,-1151 413.75,-1151 413.75,-1119.32 413.75,-1098.28"/>
</g>
<!-- bregor -->
<g id="node9" class="node">
<title>bregor</title>
<polygon fill="none" stroke="blue" points="388,-1098 334,-1098 334,-1062 388,-1062 388,-1098"/>
<text text-anchor="middle" x="361" y="-1074.95" font-family="Times,serif" font-size="14.00">Bregor</text>
</g>
<!-- boromir&#45;&#45;bregor -->
<g id="edge8" class="edge">
<title>boromir&#45;&#45;bregor</title>
<path fill="none" stroke="black" d="M365.88,-1133.83C365.88,-1123 365.88,-1109.29 365.88,-1098.41"/>
</g>
<!-- bregolas -->
<g id="node10" class="node">
<title>bregolas</title>
<polygon fill="none" stroke="blue" points="350,-1026 286,-1026 286,-990 350,-990 350,-1026"/>
<text text-anchor="middle" x="318" y="-1002.95" font-family="Times,serif" font-size="14.00">Bregolas</text>
</g>
<!-- bregor&#45;&#45;bregolas -->
<g id="edge9" class="edge">
<title>bregor&#45;&#45;bregolas</title>
<path fill="none" stroke="black" d="M342,-1061.83C342,-1051 342,-1037.29 342,-1026.41"/>
</g>
<!-- barahir -->
<g id="node11" class="node">
<title>barahir</title>
<polygon fill="none" stroke="blue" points="443.25,-1026 386.75,-1026 386.75,-990 443.25,-990 443.25,-1026"/>
<text text-anchor="middle" x="415" y="-1002.95" font-family="Times,serif" font-size="14.00">Barahir</text>
</g>
<!-- bregor&#45;&#45;barahir -->
<g id="edge10" class="edge">
<title>bregor&#45;&#45;barahir</title>
<path fill="none" stroke="black" d="M380.88,-1061.58C380.88,-1039.95 380.88,-1007 380.88,-1007 380.88,-1007 383.14,-1007 386.51,-1007"/>
</g>
<!-- baragund -->
<g id="node24" class="node">
<title>baragund</title>
<polygon fill="none" stroke="blue" points="173.25,-954 104.75,-954 104.75,-918 173.25,-918 173.25,-954"/>
<text text-anchor="middle" x="139" y="-930.95" font-family="Times,serif" font-size="14.00">Baragund</text>
</g>
<!-- bregolas&#45;&#45;baragund -->
<g id="edge23" class="edge">
<title>bregolas&#45;&#45;baragund</title>
<path fill="none" stroke="black" d="M285.58,-1007C234,-1007 139,-1007 139,-1007 139,-1007 139,-975.32 139,-954.28"/>
</g>
<!-- belegund -->
<g id="node25" class="node">
<title>belegund</title>
<polygon fill="none" stroke="blue" points="351.88,-954 284.12,-954 284.12,-918 351.88,-918 351.88,-954"/>
<text text-anchor="middle" x="318" y="-930.95" font-family="Times,serif" font-size="14.00">Belegund</text>
</g>
<!-- bregolas&#45;&#45;belegund -->
<g id="edge24" class="edge">
<title>bregolas&#45;&#45;belegund</title>
<path fill="none" stroke="black" d="M318,-989.83C318,-979 318,-965.29 318,-954.41"/>
</g>
<!-- barahir&#45;x&#45;emeldir -->
<g id="node17" class="node">
<title>barahir&#45;x&#45;emeldir</title>
<polygon fill="none" stroke="black" points="474,-1011.6 470.4,-1008 474,-1004.4 477.6,-1008 474,-1011.6"/>
</g>
<!-- barahir&#45;&#45;barahir&#45;x&#45;emeldir -->
<g id="edge15" class="edge">
<title>barahir&#45;&#45;barahir&#45;x&#45;emeldir</title>
<path fill="none" stroke="black" d="M443.46,-1007C454.54,-1007 465.82,-1007 471.03,-1007"/>
</g>
<!-- belemir -->
<g id="node13" class="node">
<title>belemir</title>
<polygon fill="none" stroke="blue" points="556.12,-1170 495.88,-1170 495.88,-1134 556.12,-1134 556.12,-1170"/>
<text text-anchor="middle" x="526" y="-1146.95" font-family="Times,serif" font-size="14.00">Belemir</text>
</g>
<!-- beldir&#45;&#45;belemir -->
<g id="edge12" class="edge">
<title>beldir&#45;&#45;belemir</title>
<path fill="none" stroke="black" d="M526,-1205.83C526,-1195 526,-1181.29 526,-1170.41"/>
</g>
<!-- beren_i -->
<g id="node14" class="node">
<title>beren_i</title>
<polygon fill="none" stroke="blue" points="553,-1098 499,-1098 499,-1062 553,-1062 553,-1098"/>
<text text-anchor="middle" x="526" y="-1074.95" font-family="Times,serif" font-size="14.00">Beren</text>
</g>
<!-- belemir&#45;&#45;beren_i -->
<g id="edge13" class="edge">
<title>belemir&#45;&#45;beren_i</title>
<path fill="none" stroke="black" d="M526,-1133.83C526,-1123 526,-1109.29 526,-1098.41"/>
</g>
<!-- emeldir -->
<g id="node15" class="node">
<title>emeldir</title>
<polygon fill="none" stroke="red" points="556.12,-1026 495.88,-1026 495.88,-990 556.12,-990 556.12,-1026"/>
<text text-anchor="middle" x="526" y="-1002.95" font-family="Times,serif" font-size="14.00">Emeldir</text>
</g>
<!-- beren_i&#45;&#45;emeldir -->
<g id="edge14" class="edge">
<title>beren_i&#45;&#45;emeldir</title>
<path fill="none" stroke="black" d="M526,-1061.83C526,-1051 526,-1037.29 526,-1026.41"/>
</g>
<!-- beren_erchamion -->
<g id="node16" class="node">
<title>beren_erchamion</title>
<polygon fill="none" stroke="blue" points="621,-882 509,-882 509,-846 621,-846 621,-882"/>
<text text-anchor="middle" x="565" y="-858.95" font-family="Times,serif" font-size="14.00">Beren Erchamion</text>
</g>
<!-- barahir&#45;x&#45;emeldir&#45;&#45;emeldir -->
<g id="edge16" class="edge">
<title>barahir&#45;x&#45;emeldir&#45;&#45;emeldir</title>
<path fill="none" stroke="black" d="M477.1,-1009C480.95,-1009 487.93,-1009 495.43,-1009"/>
</g>
<!-- c&#45;barahir&#45;x&#45;emeldir -->
<g id="node18" class="node">
<title>c&#45;barahir&#45;x&#45;emeldir</title>
<ellipse fill="black" stroke="black" cx="511" cy="-936" rx="1.8" ry="1.8"/>
</g>
<!-- barahir&#45;x&#45;emeldir&#45;&#45;c&#45;barahir&#45;x&#45;emeldir -->
<g id="edge17" class="edge">
<title>barahir&#45;x&#45;emeldir&#45;&#45;c&#45;barahir&#45;x&#45;emeldir</title>
<path fill="none" stroke="black" d="M476.26,-1006C479.99,-1006 487,-1006 487,-1006 487,-1006 487,-935 487,-935 487,-935 503.46,-935 509.12,-935"/>
</g>
<!-- c&#45;barahir&#45;x&#45;emeldir&#45;&#45;beren_erchamion -->
<g id="edge18" class="edge">
<title>c&#45;barahir&#45;x&#45;emeldir&#45;&#45;beren_erchamion</title>
<path fill="none" stroke="black" d="M511,-933.92C511,-926.45 511,-900.44 511,-882.34"/>
</g>
<!-- luthien -->
<g id="node19" class="node">
<title>luthien</title>
<polygon fill="none" stroke="red" points="465,-882 407,-882 407,-846 465,-846 465,-882"/>
<text text-anchor="middle" x="436" y="-858.95" font-family="Times,serif" font-size="14.00">Luthien</text>
</g>
<!-- luthien&#45;x&#45;beren_erchamion -->
<g id="node21" class="node">
<title>luthien&#45;x&#45;beren_erchamion</title>
<polygon fill="none" stroke="black" points="487,-867.6 483.4,-864 487,-860.4 490.6,-864 487,-867.6"/>
</g>
<!-- luthien&#45;&#45;luthien&#45;x&#45;beren_erchamion -->
<g id="edge19" class="edge">
<title>luthien&#45;&#45;luthien&#45;x&#45;beren_erchamion</title>
<path fill="none" stroke="black" d="M465.37,-863C472.81,-863 479.8,-863 483.73,-863"/>
</g>
<!-- dior -->
<g id="node20" class="node">
<title>dior</title>
<polygon fill="none" stroke="blue" points="552,-770.4 498,-770.4 498,-734.4 552,-734.4 552,-770.4"/>
<text text-anchor="middle" x="525" y="-747.35" font-family="Times,serif" font-size="14.00">Dior</text>
</g>
<!-- luthien&#45;x&#45;beren_erchamion&#45;&#45;beren_erchamion -->
<g id="edge20" class="edge">
<title>luthien&#45;x&#45;beren_erchamion&#45;&#45;beren_erchamion</title>
<path fill="none" stroke="black" d="M489.96,-865C493.69,-865 500.61,-865 508.79,-865"/>
</g>
<!-- c&#45;luthien&#45;x&#45;beren_erchamion -->
<g id="node22" class="node">
<title>c&#45;luthien&#45;x&#45;beren_erchamion</title>
<ellipse fill="black" stroke="black" cx="506" cy="-808.2" rx="1.8" ry="1.8"/>
</g>
<!-- luthien&#45;x&#45;beren_erchamion&#45;&#45;c&#45;luthien&#45;x&#45;beren_erchamion -->
<g id="edge21" class="edge">
<title>luthien&#45;x&#45;beren_erchamion&#45;&#45;c&#45;luthien&#45;x&#45;beren_erchamion</title>
<path fill="none" stroke="black" d="M489.03,-862C493.93,-862 506,-862 506,-862 506,-862 506,-819.33 506,-809.99"/>
</g>
<!-- c&#45;luthien&#45;x&#45;beren_erchamion&#45;&#45;dior -->
<g id="edge22" class="edge">
<title>c&#45;luthien&#45;x&#45;beren_erchamion&#45;&#45;dior</title>
<path fill="none" stroke="black" d="M506,-806.34C506,-800.82 506,-784.05 506,-770.66"/>
</g>
<!-- nimloth -->
<g id="node23" class="node">
<title>nimloth</title>
<polygon fill="none" stroke="red" points="454.88,-770.4 393.12,-770.4 393.12,-734.4 454.88,-734.4 454.88,-770.4"/>
<text text-anchor="middle" x="424" y="-747.35" font-family="Times,serif" font-size="14.00">Nimloth</text>
</g>
<!-- nimloth&#45;x&#45;dior -->
<g id="node49" class="node">
<title>nimloth&#45;x&#45;dior</title>
<polygon fill="none" stroke="black" points="476,-756 472.4,-752.4 476,-748.8 479.6,-752.4 476,-756"/>
</g>
<!-- nimloth&#45;&#45;nimloth&#45;x&#45;dior -->
<g id="edge47" class="edge">
<title>nimloth&#45;&#45;nimloth&#45;x&#45;dior</title>
<path fill="none" stroke="black" d="M455.15,-752C462.07,-752 468.49,-752 472.32,-752"/>
</g>
<!-- morwen -->
<g id="node36" class="node">
<title>morwen</title>
<polygon fill="none" stroke="red" points="77.25,-882 14.75,-882 14.75,-846 77.25,-846 77.25,-882"/>
<text text-anchor="middle" x="46" y="-858.95" font-family="Times,serif" font-size="14.00">Morwen</text>
</g>
<!-- baragund&#45;&#45;morwen -->
<g id="edge34" class="edge">
<title>baragund&#45;&#45;morwen</title>
<path fill="none" stroke="black" d="M112.88,-917.73C112.88,-899.44 112.88,-874 112.88,-874 112.88,-874 94.82,-874 77.48,-874"/>
</g>
<!-- rian -->
<g id="node26" class="node">
<title>rian</title>
<polygon fill="none" stroke="red" points="345,-882 291,-882 291,-846 345,-846 345,-882"/>
<text text-anchor="middle" x="318" y="-858.95" font-family="Times,serif" font-size="14.00">Rian</text>
</g>
<!-- belegund&#45;&#45;rian -->
<g id="edge25" class="edge">
<title>belegund&#45;&#45;rian</title>
<path fill="none" stroke="black" d="M318,-917.83C318,-907 318,-893.29 318,-882.41"/>
</g>
<!-- huor -->
<g id="node27" class="node">
<title>huor</title>
<polygon fill="none" stroke="blue" points="247,-882 193,-882 193,-846 247,-846 247,-882"/>
<text text-anchor="middle" x="220" y="-858.95" font-family="Times,serif" font-size="14.00">Huor</text>
</g>
<!-- huor&#45;x&#45;rian -->
<g id="node30" class="node">
<title>huor&#45;x&#45;rian</title>
<polygon fill="none" stroke="black" points="269,-867.6 265.4,-864 269,-860.4 272.6,-864 269,-867.6"/>
</g>
<!-- huor&#45;&#45;huor&#45;x&#45;rian -->
<g id="edge26" class="edge">
<title>huor&#45;&#45;huor&#45;x&#45;rian</title>
<path fill="none" stroke="black" d="M247.37,-863C254.73,-863 261.75,-863 265.7,-863"/>
</g>
<!-- hurin -->
<g id="node28" class="node">
<title>hurin</title>
<polygon fill="none" stroke="blue" points="175,-882 121,-882 121,-846 175,-846 175,-882"/>
<text text-anchor="middle" x="148" y="-858.95" font-family="Times,serif" font-size="14.00">Hurin</text>
</g>
<!-- tuor -->
<g id="node29" class="node">
<title>tuor</title>
<polygon fill="none" stroke="blue" points="277,-770.4 223,-770.4 223,-734.4 277,-734.4 277,-770.4"/>
<text text-anchor="middle" x="250" y="-747.35" font-family="Times,serif" font-size="14.00">Tuor</text>
</g>
<!-- tuor&#45;x&#45;idril -->
<g id="node33" class="node">
<title>tuor&#45;x&#45;idril</title>
<polygon fill="none" stroke="black" points="299,-756 295.4,-752.4 299,-748.8 302.6,-752.4 299,-756"/>
</g>
<!-- tuor&#45;&#45;tuor&#45;x&#45;idril -->
<g id="edge30" class="edge">
<title>tuor&#45;&#45;tuor&#45;x&#45;idril</title>
<path fill="none" stroke="black" d="M277.37,-752C284.38,-752 291.08,-752 295.11,-752"/>
</g>
<!-- huor&#45;x&#45;rian&#45;&#45;rian -->
<g id="edge27" class="edge">
<title>huor&#45;x&#45;rian&#45;&#45;rian</title>
<path fill="none" stroke="black" d="M272.22,-863C276.13,-863 283.15,-863 290.53,-863"/>
</g>
<!-- c&#45;huor&#45;x&#45;rian -->
<g id="node31" class="node">
<title>c&#45;huor&#45;x&#45;rian</title>
<ellipse fill="black" stroke="black" cx="256" cy="-808.2" rx="1.8" ry="1.8"/>
</g>
<!-- huor&#45;x&#45;rian&#45;&#45;c&#45;huor&#45;x&#45;rian -->
<g id="edge28" class="edge">
<title>huor&#45;x&#45;rian&#45;&#45;c&#45;huor&#45;x&#45;rian</title>
<path fill="none" stroke="black" d="M269,-859.97C269,-847.13 269,-808 269,-808 269,-808 261.99,-808 258.26,-808"/>
</g>
<!-- c&#45;huor&#45;x&#45;rian&#45;&#45;tuor -->
<g id="edge29" class="edge">
<title>c&#45;huor&#45;x&#45;rian&#45;&#45;tuor</title>
<path fill="none" stroke="black" d="M256,-806.34C256,-800.82 256,-784.05 256,-770.66"/>
</g>
<!-- earendil -->
<g id="node32" class="node">
<title>earendil</title>
<polygon fill="none" stroke="blue" points="331.88,-658.8 270.12,-658.8 270.12,-622.8 331.88,-622.8 331.88,-658.8"/>
<text text-anchor="middle" x="301" y="-635.75" font-family="Times,serif" font-size="14.00">Earendil</text>
</g>
<!-- earendil&#45;x&#45;elwing -->
<g id="node43" class="node">
<title>earendil&#45;x&#45;elwing</title>
<polygon fill="none" stroke="black" points="353,-644.4 349.4,-640.8 353,-637.2 356.6,-640.8 353,-644.4"/>
</g>
<!-- earendil&#45;&#45;earendil&#45;x&#45;elwing -->
<g id="edge41" class="edge">
<title>earendil&#45;&#45;earendil&#45;x&#45;elwing</title>
<path fill="none" stroke="black" d="M332.15,-640C339.24,-640 345.81,-640 349.61,-640"/>
</g>
<!-- idril -->
<g id="node34" class="node">
<title>idril</title>
<polygon fill="none" stroke="red" points="375,-770.4 321,-770.4 321,-734.4 375,-734.4 375,-770.4"/>
<text text-anchor="middle" x="348" y="-747.35" font-family="Times,serif" font-size="14.00">Idril</text>
</g>
<!-- tuor&#45;x&#45;idril&#45;&#45;idril -->
<g id="edge31" class="edge">
<title>tuor&#45;x&#45;idril&#45;&#45;idril</title>
<path fill="none" stroke="black" d="M302.84,-752C306.91,-752 313.69,-752 320.79,-752"/>
</g>
<!-- c&#45;tuor&#45;x&#45;idril -->
<g id="node35" class="node">
<title>c&#45;tuor&#45;x&#45;idril</title>
<ellipse fill="black" stroke="black" cx="300" cy="-696.6" rx="1.8" ry="1.8"/>
</g>
<!-- tuor&#45;x&#45;idril&#45;&#45;c&#45;tuor&#45;x&#45;idril -->
<g id="edge32" class="edge">
<title>tuor&#45;x&#45;idril&#45;&#45;c&#45;tuor&#45;x&#45;idril</title>
<path fill="none" stroke="black" d="M300,-749.4C300,-739.44 300,-707.6 300,-698.85"/>
</g>
<!-- c&#45;tuor&#45;x&#45;idril&#45;&#45;earendil -->
<g id="edge33" class="edge">
<title>c&#45;tuor&#45;x&#45;idril&#45;&#45;earendil</title>
<path fill="none" stroke="black" d="M300,-694.74C300,-689.22 300,-672.45 300,-659.06"/>
</g>
<!-- morwen&#45;x&#45;hurin -->
<g id="node38" class="node">
<title>morwen&#45;x&#45;hurin</title>
<polygon fill="none" stroke="black" points="99,-867.6 95.4,-864 99,-860.4 102.6,-864 99,-867.6"/>
</g>
<!-- morwen&#45;&#45;morwen&#45;x&#45;hurin -->
<g id="edge35" class="edge">
<title>morwen&#45;&#45;morwen&#45;x&#45;hurin</title>
<path fill="none" stroke="black" d="M77.75,-863C85.16,-863 91.99,-863 95.82,-863"/>
</g>
<!-- turin -->
<g id="node37" class="node">
<title>turin</title>
<polygon fill="none" stroke="blue" points="54,-770.4 0,-770.4 0,-734.4 54,-734.4 54,-770.4"/>
<text text-anchor="middle" x="27" y="-747.35" font-family="Times,serif" font-size="14.00">Turin</text>
</g>
<!-- morwen&#45;x&#45;hurin&#45;&#45;hurin -->
<g id="edge36" class="edge">
<title>morwen&#45;x&#45;hurin&#45;&#45;hurin</title>
<path fill="none" stroke="black" d="M102.22,-863C106.13,-863 113.15,-863 120.53,-863"/>
</g>
<!-- c&#45;morwen&#45;x&#45;hurin -->
<g id="node39" class="node">
<title>c&#45;morwen&#45;x&#45;hurin</title>
<ellipse fill="black" stroke="black" cx="99" cy="-808.2" rx="1.8" ry="1.8"/>
</g>
<!-- morwen&#45;x&#45;hurin&#45;&#45;c&#45;morwen&#45;x&#45;hurin -->
<g id="edge37" class="edge">
<title>morwen&#45;x&#45;hurin&#45;&#45;c&#45;morwen&#45;x&#45;hurin</title>
<path fill="none" stroke="black" d="M99,-859.99C99,-848.99 99,-818.65 99,-810.33"/>
</g>
<!-- c&#45;morwen&#45;x&#45;hurin&#45;&#45;turin -->
<g id="edge38" class="edge">
<title>c&#45;morwen&#45;x&#45;hurin&#45;&#45;turin</title>
<path fill="none" stroke="black" d="M96.85,-808C85.64,-808 34.38,-808 34.38,-808 34.38,-808 34.38,-786.82 34.38,-770.61"/>
</g>
<!-- urwen -->
<g id="node40" class="node">
<title>urwen</title>
<polygon fill="none" stroke="red" points="126,-770.4 72,-770.4 72,-734.4 126,-734.4 126,-770.4"/>
<text text-anchor="middle" x="99" y="-747.35" font-family="Times,serif" font-size="14.00">Urwen</text>
</g>
<!-- c&#45;morwen&#45;x&#45;hurin&#45;&#45;urwen -->
<g id="edge39" class="edge">
<title>c&#45;morwen&#45;x&#45;hurin&#45;&#45;urwen</title>
<path fill="none" stroke="black" d="M99,-806.34C99,-800.82 99,-784.05 99,-770.66"/>
</g>
<!-- nienor -->
<g id="node41" class="node">
<title>nienor</title>
<polygon fill="none" stroke="red" points="198,-770.4 144,-770.4 144,-734.4 198,-734.4 198,-770.4"/>
<text text-anchor="middle" x="171" y="-747.35" font-family="Times,serif" font-size="14.00">Nienor</text>
</g>
<!-- c&#45;morwen&#45;x&#45;hurin&#45;&#45;nienor -->
<g id="edge40" class="edge">
<title>c&#45;morwen&#45;x&#45;hurin&#45;&#45;nienor</title>
<path fill="none" stroke="black" d="M101.01,-808C111.51,-808 159.5,-808 159.5,-808 159.5,-808 159.5,-786.82 159.5,-770.61"/>
</g>
<!-- elros -->
<g id="node42" class="node">
<title>elros</title>
<polygon fill="none" stroke="blue" points="288,-547.2 234,-547.2 234,-511.2 288,-511.2 288,-547.2"/>
<text text-anchor="middle" x="261" y="-524.15" font-family="Times,serif" font-size="14.00">Elros</text>
</g>
<!-- kings_of_numenor -->
<g id="node47" class="node">
<title>kings_of_numenor</title>
<polygon fill="none" stroke="blue" points="319.38,-475.2 200.62,-475.2 200.62,-439.2 319.38,-439.2 319.38,-475.2"/>
<text text-anchor="middle" x="260" y="-452.15" font-family="Times,serif" font-size="14.00">Kings of Numenor</text>
</g>
<!-- elros&#45;&#45;kings_of_numenor -->
<g id="edge46" class="edge">
<title>elros&#45;&#45;kings_of_numenor</title>
<path fill="none" stroke="black" d="M261,-511.03C261,-500.2 261,-486.49 261,-475.61"/>
</g>
<!-- elwing -->
<g id="node44" class="node">
<title>elwing</title>
<polygon fill="none" stroke="blue" points="429.5,-658.8 374.5,-658.8 374.5,-622.8 429.5,-622.8 429.5,-658.8"/>
<text text-anchor="middle" x="402" y="-635.75" font-family="Times,serif" font-size="14.00">Elwing</text>
</g>
<!-- earendil&#45;x&#45;elwing&#45;&#45;elwing -->
<g id="edge42" class="edge">
<title>earendil&#45;x&#45;elwing&#45;&#45;elwing</title>
<path fill="none" stroke="black" d="M356.22,-640C360.05,-640 366.84,-640 374.05,-640"/>
</g>
<!-- c&#45;earendil&#45;x&#45;elwing -->
<g id="node45" class="node">
<title>c&#45;earendil&#45;x&#45;elwing</title>
<ellipse fill="black" stroke="black" cx="353" cy="-585" rx="1.8" ry="1.8"/>
</g>
<!-- earendil&#45;x&#45;elwing&#45;&#45;c&#45;earendil&#45;x&#45;elwing -->
<g id="edge43" class="edge">
<title>earendil&#45;x&#45;elwing&#45;&#45;c&#45;earendil&#45;x&#45;elwing</title>
<path fill="none" stroke="black" d="M353,-636.79C353,-625.79 353,-595.45 353,-587.13"/>
</g>
<!-- c&#45;earendil&#45;x&#45;elwing&#45;&#45;elros -->
<g id="edge44" class="edge">
<title>c&#45;earendil&#45;x&#45;elwing&#45;&#45;elros</title>
<path fill="none" stroke="black" d="M350.87,-585C338.74,-585 279.06,-585 279.06,-585 279.06,-585 279.06,-563.74 279.06,-547.47"/>
</g>
<!-- elrond -->
<g id="node46" class="node">
<title>elrond</title>
<polygon fill="none" stroke="blue" points="472,-547.2 418,-547.2 418,-511.2 472,-511.2 472,-547.2"/>
<text text-anchor="middle" x="445" y="-524.15" font-family="Times,serif" font-size="14.00">Elrond</text>
</g>
<!-- c&#45;earendil&#45;x&#45;elwing&#45;&#45;elrond -->
<g id="edge45" class="edge">
<title>c&#45;earendil&#45;x&#45;elwing&#45;&#45;elrond</title>
<path fill="none" stroke="black" d="M355.04,-585C366.64,-585 423.75,-585 423.75,-585 423.75,-585 423.75,-563.74 423.75,-547.47"/>
</g>
<!-- elendil -->
<g id="node58" class="node">
<title>elendil</title>
<polygon fill="none" stroke="blue" points="285.5,-403.2 230.5,-403.2 230.5,-367.2 285.5,-367.2 285.5,-403.2"/>
<text text-anchor="middle" x="258" y="-380.15" font-family="Times,serif" font-size="14.00">Elendil</text>
</g>
<!-- kings_of_numenor&#45;&#45;elendil -->
<g id="edge59" class="edge">
<title>kings_of_numenor&#45;&#45;elendil</title>
<path fill="none" stroke="black" d="M258,-439.03C258,-428.2 258,-414.49 258,-403.61"/>
</g>
<!-- elured -->
<g id="node48" class="node">
<title>elured</title>
<polygon fill="none" stroke="blue" points="502,-658.8 448,-658.8 448,-622.8 502,-622.8 502,-658.8"/>
<text text-anchor="middle" x="475" y="-635.75" font-family="Times,serif" font-size="14.00">Elured</text>
</g>
<!-- nimloth&#45;x&#45;dior&#45;&#45;dior -->
<g id="edge48" class="edge">
<title>nimloth&#45;x&#45;dior&#45;&#45;dior</title>
<path fill="none" stroke="black" d="M479.84,-752C483.91,-752 490.69,-752 497.79,-752"/>
</g>
<!-- c&#45;nimloth&#45;x&#45;dior -->
<g id="node50" class="node">
<title>c&#45;nimloth&#45;x&#45;dior</title>
<ellipse fill="black" stroke="black" cx="475" cy="-696.6" rx="1.8" ry="1.8"/>
</g>
<!-- nimloth&#45;x&#45;dior&#45;&#45;c&#45;nimloth&#45;x&#45;dior -->
<g id="edge49" class="edge">
<title>nimloth&#45;x&#45;dior&#45;&#45;c&#45;nimloth&#45;x&#45;dior</title>
<path fill="none" stroke="black" d="M475,-749.4C475,-739.44 475,-707.6 475,-698.85"/>
</g>
<!-- c&#45;nimloth&#45;x&#45;dior&#45;&#45;elwing -->
<g id="edge52" class="edge">
<title>c&#45;nimloth&#45;x&#45;dior&#45;&#45;elwing</title>
<path fill="none" stroke="black" d="M472.88,-696C461.83,-696 411.31,-696 411.31,-696 411.31,-696 411.31,-675.24 411.31,-659.18"/>
</g>
<!-- c&#45;nimloth&#45;x&#45;dior&#45;&#45;elured -->
<g id="edge50" class="edge">
<title>c&#45;nimloth&#45;x&#45;dior&#45;&#45;elured</title>
<path fill="none" stroke="black" d="M475,-694.74C475,-689.22 475,-672.45 475,-659.06"/>
</g>
<!-- elurin -->
<g id="node51" class="node">
<title>elurin</title>
<polygon fill="none" stroke="blue" points="574,-658.8 520,-658.8 520,-622.8 574,-622.8 574,-658.8"/>
<text text-anchor="middle" x="547" y="-635.75" font-family="Times,serif" font-size="14.00">Elurin</text>
</g>
<!-- c&#45;nimloth&#45;x&#45;dior&#45;&#45;elurin -->
<g id="edge51" class="edge">
<title>c&#45;nimloth&#45;x&#45;dior&#45;&#45;elurin</title>
<path fill="none" stroke="black" d="M477.03,-696C487.61,-696 536,-696 536,-696 536,-696 536,-675.24 536,-659.18"/>
</g>
<!-- elladan -->
<g id="node52" class="node">
<title>elladan</title>
<polygon fill="none" stroke="blue" points="425.62,-403.2 368.38,-403.2 368.38,-367.2 425.62,-367.2 425.62,-403.2"/>
<text text-anchor="middle" x="397" y="-380.15" font-family="Times,serif" font-size="14.00">Elladan</text>
</g>
<!-- celebrian&#45;x&#45;elrond -->
<g id="node53" class="node">
<title>celebrian&#45;x&#45;elrond</title>
<polygon fill="none" stroke="black" points="396,-532.8 392.4,-529.2 396,-525.6 399.6,-529.2 396,-532.8"/>
</g>
<!-- celebrian&#45;x&#45;elrond&#45;&#45;elrond -->
<g id="edge54" class="edge">
<title>celebrian&#45;x&#45;elrond&#45;&#45;elrond</title>
<path fill="none" stroke="black" d="M399.84,-529C403.91,-529 410.69,-529 417.79,-529"/>
</g>
<!-- c&#45;celebrian&#45;x&#45;elrond -->
<g id="node55" class="node">
<title>c&#45;celebrian&#45;x&#45;elrond</title>
<ellipse fill="black" stroke="black" cx="396" cy="-457.2" rx="1.8" ry="1.8"/>
</g>
<!-- celebrian&#45;x&#45;elrond&#45;&#45;c&#45;celebrian&#45;x&#45;elrond -->
<g id="edge55" class="edge">
<title>celebrian&#45;x&#45;elrond&#45;&#45;c&#45;celebrian&#45;x&#45;elrond</title>
<path fill="none" stroke="black" d="M396,-524.91C396,-511.35 396,-469.68 396,-459.47"/>
</g>
<!-- celebrian -->
<g id="node54" class="node">
<title>celebrian</title>
<polygon fill="none" stroke="red" points="374.25,-547.2 305.75,-547.2 305.75,-511.2 374.25,-511.2 374.25,-547.2"/>
<text text-anchor="middle" x="340" y="-524.15" font-family="Times,serif" font-size="14.00">Celebrian</text>
</g>
<!-- celebrian&#45;&#45;celebrian&#45;x&#45;elrond -->
<g id="edge53" class="edge">
<title>celebrian&#45;&#45;celebrian&#45;x&#45;elrond</title>
<path fill="none" stroke="black" d="M374.51,-529C381.53,-529 387.98,-529 391.94,-529"/>
</g>
<!-- c&#45;celebrian&#45;x&#45;elrond&#45;&#45;elladan -->
<g id="edge56" class="edge">
<title>c&#45;celebrian&#45;x&#45;elrond&#45;&#45;elladan</title>
<path fill="none" stroke="black" d="M396,-455.12C396,-447.65 396,-421.64 396,-403.54"/>
</g>
<!-- elrohir -->
<g id="node56" class="node">
<title>elrohir</title>
<polygon fill="none" stroke="blue" points="498.12,-403.2 443.88,-403.2 443.88,-367.2 498.12,-367.2 498.12,-403.2"/>
<text text-anchor="middle" x="471" y="-380.15" font-family="Times,serif" font-size="14.00">Elrohir</text>
</g>
<!-- c&#45;celebrian&#45;x&#45;elrond&#45;&#45;elrohir -->
<g id="edge57" class="edge">
<title>c&#45;celebrian&#45;x&#45;elrond&#45;&#45;elrohir</title>
<path fill="none" stroke="black" d="M398.06,-457C408.81,-457 457.94,-457 457.94,-457 457.94,-457 457.94,-424.96 457.94,-403.69"/>
</g>
<!-- arwen -->
<g id="node57" class="node">
<title>arwen</title>
<polygon fill="none" stroke="red" points="256,-147.6 202,-147.6 202,-111.6 256,-111.6 256,-147.6"/>
<text text-anchor="middle" x="229" y="-124.55" font-family="Times,serif" font-size="14.00">Arwen</text>
</g>
<!-- c&#45;celebrian&#45;x&#45;elrond&#45;&#45;arwen -->
<g id="edge58" class="edge">
<title>c&#45;celebrian&#45;x&#45;elrond&#45;&#45;arwen</title>
<path fill="none" stroke="black" d="M393.76,-457C383.78,-457 343.88,-457 343.88,-457 343.88,-457 343.88,-205 343.88,-205 343.88,-205 251.9,-205 251.9,-205 251.9,-205 251.9,-170.17 251.9,-147.85"/>
</g>
<!-- arwen&#45;x&#45;aragorn_ii_elessar -->
<g id="node67" class="node">
<title>arwen&#45;x&#45;aragorn_ii_elessar</title>
<polygon fill="none" stroke="black" points="278,-133.2 274.4,-129.6 278,-126 281.6,-129.6 278,-133.2"/>
</g>
<!-- arwen&#45;&#45;arwen&#45;x&#45;aragorn_ii_elessar -->
<g id="edge68" class="edge">
<title>arwen&#45;&#45;arwen&#45;x&#45;aragorn_ii_elessar</title>
<path fill="none" stroke="black" d="M256.37,-129C263.56,-129 270.41,-129 274.41,-129"/>
</g>
<!-- isildur -->
<g id="node59" class="node">
<title>isildur</title>
<polygon fill="none" stroke="blue" points="174,-331.2 120,-331.2 120,-295.2 174,-295.2 174,-331.2"/>
<text text-anchor="middle" x="147" y="-308.15" font-family="Times,serif" font-size="14.00">Isildur</text>
</g>
<!-- elendil&#45;&#45;isildur -->
<g id="edge60" class="edge">
<title>elendil&#45;&#45;isildur</title>
<path fill="none" stroke="black" d="M230.16,-385C200.88,-385 159,-385 159,-385 159,-385 159,-352.96 159,-331.69"/>
</g>
<!-- anarion -->
<g id="node60" class="node">
<title>anarion</title>
<polygon fill="none" stroke="blue" points="288.12,-331.2 227.88,-331.2 227.88,-295.2 288.12,-295.2 288.12,-331.2"/>
<text text-anchor="middle" x="258" y="-308.15" font-family="Times,serif" font-size="14.00">Anarion</text>
</g>
<!-- elendil&#45;&#45;anarion -->
<g id="edge61" class="edge">
<title>elendil&#45;&#45;anarion</title>
<path fill="none" stroke="black" d="M258,-367.03C258,-356.2 258,-342.49 258,-331.61"/>
</g>
<!-- kings_of_arnor -->
<g id="node62" class="node">
<title>kings_of_arnor</title>
<polygon fill="none" stroke="blue" points="160.25,-259.2 61.75,-259.2 61.75,-223.2 160.25,-223.2 160.25,-259.2"/>
<text text-anchor="middle" x="111" y="-236.15" font-family="Times,serif" font-size="14.00">Kings of Arnor</text>
</g>
<!-- isildur&#45;&#45;kings_of_arnor -->
<g id="edge63" class="edge">
<title>isildur&#45;&#45;kings_of_arnor</title>
<path fill="none" stroke="black" d="M140.12,-295.03C140.12,-284.2 140.12,-270.49 140.12,-259.61"/>
</g>
<!-- kings_of_gondor -->
<g id="node61" class="node">
<title>kings_of_gondor</title>
<polygon fill="none" stroke="blue" points="312.12,-259.2 203.88,-259.2 203.88,-223.2 312.12,-223.2 312.12,-259.2"/>
<text text-anchor="middle" x="258" y="-236.15" font-family="Times,serif" font-size="14.00">Kings of Gondor</text>
</g>
<!-- anarion&#45;&#45;kings_of_gondor -->
<g id="edge62" class="edge">
<title>anarion&#45;&#45;kings_of_gondor</title>
<path fill="none" stroke="black" d="M258,-295.03C258,-284.2 258,-270.49 258,-259.61"/>
</g>
<!-- kings_of_arnor&#45;x&#45;kings_of_gondor -->
<g id="node64" class="node">
<title>kings_of_arnor&#45;x&#45;kings_of_gondor</title>
<polygon fill="none" stroke="black" points="182,-244.8 178.4,-241.2 182,-237.6 185.6,-241.2 182,-244.8"/>
</g>
<!-- kings_of_arnor&#45;&#45;kings_of_arnor&#45;x&#45;kings_of_gondor -->
<g id="edge64" class="edge">
<title>kings_of_arnor&#45;&#45;kings_of_arnor&#45;x&#45;kings_of_gondor</title>
<path fill="none" stroke="black" d="M160.7,-241C167.97,-241 174.29,-241 178.12,-241"/>
</g>
<!-- aragorn_ii_elessar -->
<g id="node63" class="node">
<title>aragorn_ii_elessar</title>
<polygon fill="none" stroke="blue" points="416.25,-147.6 299.75,-147.6 299.75,-111.6 416.25,-111.6 416.25,-147.6"/>
<text text-anchor="middle" x="358" y="-124.55" font-family="Times,serif" font-size="14.00">Aragorn II Elessar</text>
</g>
<!-- kings_of_arnor&#45;x&#45;kings_of_gondor&#45;&#45;kings_of_gondor -->
<g id="edge65" class="edge">
<title>kings_of_arnor&#45;x&#45;kings_of_gondor&#45;&#45;kings_of_gondor</title>
<path fill="none" stroke="black" d="M186.09,-241C189.97,-241 196.3,-241 203.63,-241"/>
</g>
<!-- c&#45;kings_of_arnor&#45;x&#45;kings_of_gondor -->
<g id="node65" class="node">
<title>c&#45;kings_of_arnor&#45;x&#45;kings_of_gondor</title>
<ellipse fill="black" stroke="black" cx="246" cy="-185.4" rx="1.8" ry="1.8"/>
</g>
<!-- kings_of_arnor&#45;x&#45;kings_of_gondor&#45;&#45;c&#45;kings_of_arnor&#45;x&#45;kings_of_gondor -->
<g id="edge66" class="edge">
<title>kings_of_arnor&#45;x&#45;kings_of_gondor&#45;&#45;c&#45;kings_of_arnor&#45;x&#45;kings_of_gondor</title>
<path fill="none" stroke="black" d="M182,-237.16C182,-224.27 182,-185 182,-185 182,-185 232.77,-185 243.87,-185"/>
</g>
<!-- c&#45;kings_of_arnor&#45;x&#45;kings_of_gondor&#45;&#45;aragorn_ii_elessar -->
<g id="edge67" class="edge">
<title>c&#45;kings_of_arnor&#45;x&#45;kings_of_gondor&#45;&#45;aragorn_ii_elessar</title>
<path fill="none" stroke="black" d="M247.99,-185C258.39,-185 305.94,-185 305.94,-185 305.94,-185 305.94,-164.16 305.94,-148.05"/>
</g>
<!-- eldarion -->
<g id="node66" class="node">
<title>eldarion</title>
<polygon fill="none" stroke="blue" points="309.25,-36 246.75,-36 246.75,0 309.25,0 309.25,-36"/>
<text text-anchor="middle" x="278" y="-12.95" font-family="Times,serif" font-size="14.00">Eldarion</text>
</g>
<!-- arwen&#45;x&#45;aragorn_ii_elessar&#45;&#45;aragorn_ii_elessar -->
<g id="edge69" class="edge">
<title>arwen&#45;x&#45;aragorn_ii_elessar&#45;&#45;aragorn_ii_elessar</title>
<path fill="none" stroke="black" d="M281.44,-129C285.21,-129 291.76,-129 299.49,-129"/>
</g>
<!-- c&#45;arwen&#45;x&#45;aragorn_ii_elessar -->
<g id="node68" class="node">
<title>c&#45;arwen&#45;x&#45;aragorn_ii_elessar</title>
<ellipse fill="black" stroke="black" cx="278" cy="-73.8" rx="1.8" ry="1.8"/>
</g>
<!-- arwen&#45;x&#45;aragorn_ii_elessar&#45;&#45;c&#45;arwen&#45;x&#45;aragorn_ii_elessar -->
<g id="edge70" class="edge">
<title>arwen&#45;x&#45;aragorn_ii_elessar&#45;&#45;c&#45;arwen&#45;x&#45;aragorn_ii_elessar</title>
<path fill="none" stroke="black" d="M278,-125.59C278,-114.59 278,-84.25 278,-75.93"/>
</g>
<!-- c&#45;arwen&#45;x&#45;aragorn_ii_elessar&#45;&#45;eldarion -->
<g id="edge71" class="edge">
<title>c&#45;arwen&#45;x&#45;aragorn_ii_elessar&#45;&#45;eldarion</title>
<path fill="none" stroke="black" d="M278,-71.94C278,-66.42 278,-49.65 278,-36.26"/>
</g>
</g>
</svg>
